:FULLY-SPECIFIED
:FORCE-ALL-JOINTS-BE-3DOF
:DEGREES
408
root 4.22015 15.9777 -11.8154 4.16343 -20.6564 -5.16334
lfemur -23.471 8.31743 -3.51205
ltibia 53.8182 0 0
lfoot -14.3593 9.85912 0
ltoes -2.97978 0 0
rfemur -37.4689 -1.27951 8.13066
rtibia 48.0215 0 0
rfoot 2.56874 -0.259606 0
rtoes -11.849 0 0
lowerback 5.03722 1.71995 2.35264
upperback 1.99717 2.4157 -0.410504
thorax -0.575544 1.2028 -1.95124
lowerneck -6.54679 1.70029 7.09477
upperneck 3.39417 1.71493 -0.788639
head 2.5409 0.935587 -1.43405
lclavicle -2.48348e-14 1.11531e-14 0
lhumerus -44.449 -23.6653 98.4056
lradius 50.2738 0 0
lwrist 13.7405 0 0
lhand -16.2632 1.54144 0
lfingers 7.12502 0 0
lthumb 9.9348 31.0986 0
rclavicle -2.48348e-14 1.11531e-14 0
rhumerus -44.3385 5.39647 -88.401
rradius 71.9594 0 0
rwrist 10.9187 0 0
rhand -34.7404 -25.3331 0
rfingers 7.12502 0 0
rthumb -7.88932 -775.066 0
409
root 4.16383 15.9715 -11.6958 4.09589 -21.1663 -5.24479
lfemur -23.7686 8.32057 -3.50373
ltibia 53.8787 0 0
lfoot -14.8169 9.63204 0
ltoes -3.24863 0 0
rfemur -37.3827 -0.98398 7.87401
rtibia 47.9714 0 0
rfoot 2.7503 -0.145464 0
rtoes -12.0062 0 0
lowerback 5.1334 1.76677 2.39567
upperback 2.00031 2.48045 -0.433756
thorax -0.62331 1.23527 -2.00217
lowerneck -6.54029 1.83499 7.22525
upperneck 3.44018 1.88701 -0.891462
head 2.55577 1.02096 -1.48302
lclavicle -2.48481e-14 1.10524e-14 0
lhumerus -44.4014 -23.6064 98.2607
lradius 50.1844 0 0
lwrist 13.6623 0 0
lhand -16.542 1.40555 0
lfingers 7.12502 0 0
lthumb 9.66644 30.9845 0
rclavicle -2.48481e-14 1.10524e-14 0
rhumerus -44.5142 5.27664 -88.3994
rradius 71.8058 0 0
rwrist 11.003 0 0
rhand -34.5304 -25.1456 0
rfingers 7.12502 0 0
rthumb -7.68688 -774.89 0
410
root 4.10752 15.9653 -11.5762 4.02835 -21.6762 -5.32625
lfemur -24.0662 8.32371 -3.49541
ltibia 53.9392 0 0
lfoot -15.2745 9.40496 0
ltoes -3.51748 0 0
rfemur -37.2966 -0.688451 7.61737
rtibia 47.9213 0 0
rfoot 2.93187 -0.0313217 0
rtoes -12.1634 0 0
lowerback 5.22959 1.81359 2.4387
upperback 2.00346 2.5452 -0.457009
thorax -0.671076 1.26775 -2.0531
lowerneck -6.53379 1.96969 7.35572
upperneck 3.48618 2.05908 -0.994285
head 2.57064 1.10633 -1.53198
lclavicle -2.48614e-14 1.09517e-14 0
lhumerus -44.3538 -23.5475 98.1158
lradius 50.0951 0 0
lwrist 13.5841 0 0
lhand -16.8208 1.26966 0
lfingers 7.12502 0 0
lthumb 9.39807 30.8703 0
rclavicle -2.48614e-14 1.09517e-14 0
rhumerus -44.6898 5.15681 -88.3977
rradius 71.6522 0 0
rwrist 11.0872 0 0
rhand -34.3204 -24.9581 0
rfingers 7.12502 0 0
rthumb -7.48444 -774.715 0
411
root 4.05121 15.9591 -11.4566 3.96081 -22.186 -5.4077
lfemur -24.3638 8.32684 -3.48709
ltibia 53.9996 0 0
lfoot -15.7321 9.17788 0
ltoes -3.78633 0 0
rfemur -37.2104 -0.392923 7.36072
rtibia 47.8712 0 0
rfoot 3.11343 0.0828205 0
rtoes -12.3206 0 0
lowerback 5.32578 1.86041 2.48173
upperback 2.0066 2.60995 -0.480262
thorax -0.718842 1.30022 -2.10402
lowerneck -6.52729 2.10439 7.4862
upperneck 3.53219 2.23116 -1.09711
head 2.5855 1.19171 -1.58094
lclavicle -2.48746e-14 1.0851e-14 0
lhumerus -44.3062 -23.4887 97.9709
lradius 50.0058 0 0
lwrist 13.506 0 0
lhand -17.0996 1.13377 0
lfingers 7.12502 0 0
lthumb 9.12971 30.7561 0
rclavicle -2.48746e-14 1.0851e-14 0
rhumerus -44.8655 5.03698 -88.396
rradius 71.4986 0 0
rwrist 11.1715 0 0
rhand -34.1104 -24.7706 0
rfingers 7.12502 0 0
rthumb -7.282 -774.54 0
412
root 3.9949 15.9529 -11.337 3.89328 -22.6959 -5.48916
lfemur -24.6614 8.32998 -3.47876
ltibia 54.0601 0 0
lfoot -16.1896 8.9508 0
ltoes -4.05518 0 0
rfemur -37.1243 -0.097394 7.10408
rtibia 47.8211 0 0
rfoot 3.295 0.196963 0
rtoes -12.4778 0 0
lowerback 5.42196 1.90723 2.52477
upperback 2.00975 2.6747 -0.503515
thorax -0.766608 1.3327 -2.15495
lowerneck -6.52078 2.23909 7.61668
upperneck 3.57819 2.40323 -1.19993
head 2.60037 1.27708 -1.62991
lclavicle -2.48879e-14 1.07503e-14 0
lhumerus -44.2585 -23.4298 97.8261
lradius 49.9165 0 0
lwrist 13.4278 0 0
lhand -17.3783 0.997882 0
lfingers 7.12502 0 0
lthumb 8.86134 30.642 0
rclavicle -2.48879e-14 1.07503e-14 0
rhumerus -45.0411 4.91715 -88.3944
rradius 71.345 0 0
rwrist 11.2558 0 0
rhand -33.9003 -24.583 0
rfingers 7.12502 0 0
rthumb -7.07956 -774.365 0
413
root 3.93859 15.9467 -11.2174 3.82574 -23.2058 -5.57062
lfemur -24.959 8.33311 -3.47044
ltibia 54.1206 0 0
lfoot -16.6472 8.72372 0
ltoes -4.32403 0 0
rfemur -37.0381 0.198135 6.84743
rtibia 47.771 0 0
rfoot 3.47656 0.311105 0
rtoes -12.635 0 0
lowerback 5.51815 1.95405 2.5678
upperback 2.0129 2.73945 -0.526767
thorax -0.814374 1.36518 -2.20588
lowerneck -6.51428 2.37379 7.74715
upperneck 3.6242 2.5753 -1.30275
head 2.61524 1.36245 -1.67887
lclavicle -2.49011e-14 1.06496e-14 0
lhumerus -44.2109 -23.371 97.6812
lradius 49.8271 0 0
lwrist 13.3496 0 0
lhand -17.6571 0.861993 0
lfingers 7.12502 0 0
lthumb 8.59298 30.5278 0
rclavicle -2.49011e-14 1.06496e-14 0
rhumerus -45.2168 4.79732 -88.3927
rradius 71.1914 0 0
rwrist 11.3401 0 0
rhand -33.6903 -24.3955 0
rfingers 7.12502 0 0
rthumb -6.87712 -774.189 0
414
root 3.88228 15.9405 -11.0979 3.7582 -23.7157 -5.65207
lfemur -25.2567 8.33625 -3.46212
ltibia 54.1811 0 0
lfoot -17.1048 8.49664 0
ltoes -4.59288 0 0
rfemur -36.9519 0.493663 6.59079
rtibia 47.7208 0 0
rfoot 3.65812 0.425247 0
rtoes -12.7923 0 0
lowerback 5.61433 2.00087 2.61083
upperback 2.01604 2.8042 -0.55002
thorax -0.86214 1.39765 -2.25681
lowerneck -6.50778 2.50849 7.87763
upperneck 3.67021 2.74738 -1.40558
head 2.6301 1.44782 -1.72784
lclavicle -2.49144e-14 1.05488e-14 0
lhumerus -44.1633 -23.3121 97.5363
lradius 49.7378 0 0
lwrist 13.2714 0 0
lhand -17.9359 0.726105 0
lfingers 7.12502 0 0
lthumb 8.32461 30.4137 0
rclavicle -2.49144e-14 1.05488e-14 0
rhumerus -45.3924 4.67749 -88.391
rradius 71.0378 0 0
rwrist 11.4243 0 0
rhand -33.4803 -24.208 0
rfingers 7.12502 0 0
rthumb -6.67468 -774.014 0
415
root 3.82596 15.9343 -10.9783 3.69066 -24.2255 -5.73353
lfemur -25.5543 8.33939 -3.4538
ltibia 54.2415 0 0
lfoot -17.5624 8.26956 0
ltoes -4.86174 0 0
rfemur -36.8658 0.789192 6.33414
rtibia 47.6707 0 0
rfoot 3.83969 0.53939 0
rtoes -12.9495 0 0
lowerback 5.71052 2.04769 2.65386
upperback 2.01919 2.86895 -0.573273
thorax -0.909906 1.43013 -2.30774
lowerneck -6.50128 2.64319 8.00811
upperneck 3.71621 2.91945 -1.5084
head 2.64497 1.5332 -1.7768
lclavicle -2.49276e-14 1.04481e-14 0
lhumerus -44.1157 -23.2533 97.3914
lradius 49.6485 0 0
lwrist 13.1932 0 0
lhand -18.2147 0.590216 0
lfingers 7.12502 0 0
lthumb 8.05625 30.2995 0
rclavicle -2.49276e-14 1.04481e-14 0
rhumerus -45.5681 4.55766 -88.3894
rradius 70.8842 0 0
rwrist 11.5086 0 0
rhand -33.2703 -24.0205 0
rfingers 7.12502 0 0
rthumb -6.47224 -773.839 0
416
root 3.76965 15.9281 -10.8587 3.62312 -24.7354 -5.81498
lfemur -25.8519 8.34252 -3.44548
ltibia 54.302 0 0
lfoot -18.0199 8.04248 0
ltoes -5.13059 0 0
rfemur -36.7796 1.08472 6.0775
rtibia 47.6206 0 0
rfoot 4.02125 0.653532 0
rtoes -13.1067 0 0
lowerback 5.8067 2.09451 2.69689
upperback 2.02233 2.9337 -0.596526
thorax -0.957672 1.4626 -2.35866
lowerneck -6.49477 2.77789 8.13858
upperneck 3.76222 3.09153 -1.61122
head 2.65984 1.61857 -1.82576
lclavicle -2.49409e-14 1.03474e-14 0
lhumerus -44.0681 -23.1944 97.2466
lradius 49.5591 0 0
lwrist 13.1151 0 0
lhand -18.4935 0.454328 0
lfingers 7.12502 0 0
lthumb 7.78789 30.1854 0
rclavicle -2.49409e-14 1.03474e-14 0
rhumerus -45.7437 4.43783 -88.3877
rradius 70.7306 0 0
rwrist 11.5929 0 0
rhand -33.0603 -23.833 0
rfingers 7.12502 0 0
rthumb -6.2698 -773.664 0
417
root 3.71334 15.9219 -10.7391 3.55558 -25.2453 -5.89644
lfemur -26.1495 8.34566 -3.43716
ltibia 54.3625 0 0
lfoot -18.4775 7.81541 0
ltoes -5.39944 0 0
rfemur -36.6934 1.38025 5.82085
rtibia 47.5705 0 0
rfoot 4.20281 0.767674 0
rtoes -13.2639 0 0
lowerback 5.90289 2.14133 2.73993
upperback 2.02548 2.99845 -0.619779
thorax -1.00544 1.49508 -2.40959
lowerneck -6.48827 2.91259 8.26906
upperneck 3.80823 3.2636 -1.71405
head 2.6747 1.70394 -1.87473
lclavicle -2.49541e-14 1.02467e-14 0
lhumerus -44.0205 -23.1356 97.1017
lradius 49.4698 0 0
lwrist 13.0369 0 0
lhand -18.7723 0.31844 0
lfingers 7.12502 0 0
lthumb 7.51952 30.0712 0
rclavicle -2.49541e-14 1.02467e-14 0
rhumerus -45.9194 4.318 -88.386
rradius 70.577 0 0
rwrist 11.6772 0 0
rhand -32.8503 -23.6455 0
rfingers 7.12502 0 0
rthumb -6.06736 -773.489 0
418
root 3.65703 15.9157 -10.6195 3.48804 -25.7552 -5.97789
lfemur -26.4471 8.34879 -3.42884
ltibia 54.423 0 0
lfoot -18.9351 7.58833 0
ltoes -5.66829 0 0
rfemur -36.6073 1.67578 5.56421
rtibia 47.5204 0 0
rfoot 4.38438 0.881816 0
rtoes -13.4211 0 0
lowerback 5.99908 2.18815 2.78296
upperback 2.02862 3.0632 -0.643031
thorax -1.0532 1.52755 -2.46052
lowerneck -6.48177 3.04729 8.39954
upperneck 3.85423 3.43568 -1.81687
head 2.68957 1.78931 -1.92369
lclavicle -2.49674e-14 1.0146e-14 0
lhumerus -43.9729 -23.0767 96.9568
lradius 49.3805 0 0
lwrist 12.9587 0 0
lhand -19.0511 0.182551 0
lfingers 7.12502 0 0
lthumb 7.25116 29.957 0
rclavicle -2.49674e-14 1.0146e-14 0
rhumerus -46.095 4.19817 -88.3844
rradius 70.4234 0 0
rwrist 11.7614 0 0
rhand -32.6403 -23.458 0
rfingers 7.12502 0 0
rthumb -5.86492 -773.313 0
419
root 3.60072 15.9095 -10.4999 3.4205 -26.265 -6.05935
lfemur -26.7447 8.35193 -3.42052
ltibia 54.4834 0 0
lfoot -19.3926 7.36125 0
ltoes -5.93714 0 0
rfemur -36.5211 1.97131 5.30756
rtibia 47.4703 0 0
rfoot 4.56594 0.995959 0
rtoes -13.5783 0 0
lowerback 6.09526 2.23497 2.82599
upperback 2.03177 3.12795 -0.666284
thorax -1.10097 1.56003 -2.51145
lowerneck -6.47526 3.18198 8.53002
upperneck 3.90024 3.60775 -1.91969
head 2.70444 1.87469 -1.97265
lclavicle -2.49806e-14 1.00452e-14 0
lhumerus -43.9253 -23.0179 96.812
lradius 49.2911 0 0
lwrist 12.8805 0 0
lhand -19.3299 0.0466629 0
lfingers 7.12502 0 0
lthumb 6.98279 29.8429 0
rclavicle -2.49806e-14 1.00452e-14 0
rhumerus -46.2707 4.07833 -88.3827
rradius 70.2698 0 0
rwrist 11.8457 0 0
rhand -32.4303 -23.2705 0
rfingers 7.12502 0 0
rthumb -5.66248 -773.138 0
